<svg width="21" height="21" viewBox="0 0 21 21" fill="none" xmlns="http://www.w3.org/2000/svg">
<path d="M17.8296 0.88205L3.68896 0.88205C2.07367 0.88205 0.759277 2.19623 0.759277 3.81126L0.759277 17.9496C0.759277 19.5646 2.07367 20.8788 3.68896 20.8788L9.5874 20.8788L9.5874 13.8096L7.24365 13.8096L7.24365 10.2946L9.5874 10.2946L9.5874 7.91216C9.5874 5.97385 11.1644 4.39711 13.103 4.39711L16.6577 4.39711L16.6577 7.91216L13.103 7.91216L13.103 10.2946L16.6577 10.2946L16.0718 13.8096L13.103 13.8096L13.103 20.8788L17.8296 20.8788C19.4449 20.8788 20.7593 19.5646 20.7593 17.9496L20.7593 3.81126C20.7593 2.19623 19.4449 0.88205 17.8296 0.88205Z" fill="white"/>
</svg>
