<svg width="21" height="21" viewBox="0 0 21 21" fill="none" xmlns="http://www.w3.org/2000/svg">
<path d="M10.3599 0.882019C4.83486 0.882019 0.359863 5.47325 0.359863 11.1358C0.359863 15.667 3.22486 19.5096 7.19736 20.8643C7.69736 20.9608 7.8807 20.6435 7.8807 20.3713C7.8807 20.1278 7.87236 19.4826 7.8682 18.6278C5.08653 19.2461 4.49986 17.2522 4.49986 17.2522C4.04486 16.0687 3.38736 15.7522 3.38736 15.7522C2.48153 15.1166 3.45736 15.1296 3.45736 15.1296C4.46153 15.2009 4.98903 16.1861 4.98903 16.1861C5.8807 17.7539 7.32986 17.3009 7.90153 17.0392C7.99153 16.3757 8.24903 15.9244 8.53486 15.6679C6.31403 15.4114 3.97986 14.5296 3.97986 10.601C3.97986 9.48189 4.36736 8.56712 5.00903 7.84974C4.89653 7.59061 4.55903 6.54802 5.09653 5.13587C5.09653 5.13587 5.93403 4.86109 7.84653 6.18716C8.64653 5.95933 9.49653 5.84629 10.3465 5.84108C11.1965 5.84629 12.0465 5.95933 12.8465 6.18716C14.7465 4.86109 15.584 5.13587 15.584 5.13587C16.1215 6.54802 15.784 7.59061 15.684 7.84974C16.3215 8.56712 16.709 9.48189 16.709 10.601C16.709 14.5401 14.3715 15.407 12.1465 15.6592C12.4965 15.967 12.8215 16.5957 12.8215 17.5566C12.8215 18.9287 12.809 20.0313 12.809 20.3643C12.809 20.633 12.984 20.9539 13.4965 20.8513C17.4974 19.5052 20.3599 15.6601 20.3599 11.1358C20.3599 5.47325 15.8824 0.882019 10.3599 0.882019Z" fill="white"/>
</svg>
