<svg width="21" height="21" viewBox="0 0 21 21" fill="none" xmlns="http://www.w3.org/2000/svg">
<path d="M14.3096 0.88205L6.80957 0.88205C3.35832 0.88205 0.55957 3.68035 0.55957 7.13104L0.55957 14.6298C0.55957 18.0805 3.35832 20.8788 6.80957 20.8788L14.3096 20.8788C17.7608 20.8788 20.5596 18.0805 20.5596 14.6298L20.5596 7.13104C20.5596 3.68035 17.7608 0.88205 14.3096 0.88205ZM18.6846 14.6298C18.6846 17.0419 16.7221 19.0041 14.3096 19.0041L6.80957 19.0041C4.39707 19.0041 2.43457 17.0419 2.43457 14.6298L2.43457 7.13104C2.43457 4.71893 4.39707 2.75675 6.80957 2.75675L14.3096 2.75675C16.7221 2.75675 18.6846 4.71893 18.6846 7.13104L18.6846 14.6298Z" fill="white"/>
<path d="M10.5596 5.88126C7.79832 5.88126 5.55957 8.11964 5.55957 10.8804C5.55957 13.6413 7.79832 15.8796 10.5596 15.8796C13.3208 15.8796 15.5596 13.6413 15.5596 10.8804C15.5596 8.11964 13.3208 5.88126 10.5596 5.88126ZM10.5596 14.0049C8.83707 14.0049 7.43457 12.6027 7.43457 10.8804C7.43457 9.15698 8.83707 7.75595 10.5596 7.75595C12.2821 7.75595 13.6846 9.15698 13.6846 10.8804C13.6846 12.6027 12.2821 14.0049 10.5596 14.0049Z" fill="white"/>
<path d="M15.9353 6.17246C16.3033 6.17246 16.6015 5.87422 16.6015 5.50632C16.6015 5.13842 16.3033 4.84018 15.9353 4.84018C15.5673 4.84018 15.269 5.13842 15.269 5.50632C15.269 5.87422 15.5673 6.17246 15.9353 6.17246Z" fill="white"/>
</svg>
