<svg width="30" height="31" viewBox="0 0 30 31" fill="none" xmlns="http://www.w3.org/2000/svg">
<path d="M25.6055 0.137207L4.39453 0.137207C1.97159 0.137207 0 2.1088 0 4.53174L0 25.7427C0 28.1656 1.97159 30.1372 4.39453 30.1372L13.2422 30.1372V19.5317L9.72656 19.5317L9.72656 14.2583H13.2422V10.6841C13.2422 7.77614 15.6077 5.41064 18.5156 5.41064L23.8477 5.41064V10.6841H18.5156L18.5156 14.2583H23.8477L22.9687 19.5317H18.5156V30.1372H25.6055C28.0284 30.1372 30 28.1656 30 25.7427L30 4.53174C30 2.1088 28.0284 0.137207 25.6055 0.137207Z" fill="white"/>
</svg>
