<svg width="30" height="31" viewBox="0 0 30 31" fill="none" xmlns="http://www.w3.org/2000/svg">
<path d="M-8.27214e-07 10.2109L-3.76007e-07 21.4609C-1.68376e-07 26.6378 4.19812 30.8359 9.375 30.8359L20.625 30.8359C25.8019 30.8359 30 26.6378 30 21.4609L30 10.2109C30 5.03406 25.8019 0.835936 20.625 0.835937L9.375 0.835937C4.19812 0.835937 -1.03485e-06 5.03406 -8.27214e-07 10.2109ZM20.625 3.64844C24.2437 3.64844 27.1875 6.59219 27.1875 10.2109L27.1875 21.4609C27.1875 25.0797 24.2437 28.0234 20.625 28.0234L9.375 28.0234C5.75625 28.0234 2.8125 25.0797 2.8125 21.4609L2.8125 10.2109C2.8125 6.59219 5.75625 3.64844 9.375 3.64844L20.625 3.64844Z" fill="white"/>
<path d="M7.5 15.8335C7.5 19.9754 10.8581 23.3335 15 23.3335C19.1419 23.3335 22.5 19.9754 22.5 15.8335C22.5 11.6916 19.1419 8.3335 15 8.3335C10.8581 8.3335 7.5 11.6916 7.5 15.8335ZM19.6875 15.8335C19.6875 18.4172 17.5837 20.521 15 20.521C12.4144 20.521 10.3125 18.4172 10.3125 15.8335C10.3125 13.2497 12.4144 11.146 15 11.146C17.5837 11.146 19.6875 13.2497 19.6875 15.8335Z" fill="white"/>
<path d="M7.93685 7.76899C7.93685 7.21695 7.48942 6.76943 6.93748 6.76943C6.38554 6.76943 5.93811 7.21695 5.93811 7.76899C5.93811 8.32104 6.38554 8.76855 6.93748 8.76855C7.48942 8.76855 7.93685 8.32104 7.93685 7.76899Z" fill="white"/>
</svg>
