<svg width="30" height="31" viewBox="0 0 30 31" fill="none" xmlns="http://www.w3.org/2000/svg">
<path d="M15 30.1372C23.2863 30.1372 30 23.4235 30 15.1372C30 6.85096 23.2863 0.137207 15 0.137207C6.71375 0.137207 0 6.85096 0 15.1372C0 23.4235 6.71375 30.1372 15 30.1372ZM6.86375 14.8122L21.3263 9.23596C21.9975 8.99346 22.5837 9.39971 22.3662 10.4147L22.3675 10.4135L19.905 22.0147C19.7225 22.8372 19.2338 23.0372 18.55 22.6497L14.8 19.886L12.9912 21.6285C12.7912 21.8285 12.6225 21.9972 12.235 21.9972L12.5013 18.181L19.4512 11.9022C19.7537 11.636 19.3837 11.486 18.985 11.751L10.3963 17.1585L6.69375 16.0035C5.89 15.7485 5.8725 15.1997 6.86375 14.8122V14.8122Z" fill="white"/>
</svg>
