<svg width="20" height="21" viewBox="0 0 20 21" fill="none" xmlns="http://www.w3.org/2000/svg">
<path d="M-6.69443e-07 3.92529L-1.14893e-07 18.0659C-5.15463e-08 19.6812 1.31439 20.9956 2.92969 20.9956L17.0703 20.9956C18.6856 20.9956 20 19.6812 20 18.0659L20 12.1675L12.9297 12.1675L12.9297 14.5112L9.41406 14.5112L9.41406 12.1675L7.03125 12.1675C5.09262 12.1675 3.51562 10.5905 3.51562 8.65186L3.51562 5.09717L7.03125 5.09717L7.03125 8.65186L9.41406 8.65186L9.41406 5.09717L12.9297 5.6831L12.9297 8.65185L20 8.65185L20 3.92529C20 2.31 18.6856 0.995605 17.0703 0.995605L2.92969 0.995605C1.31439 0.995605 -7.3279e-07 2.31 -6.69443e-07 3.92529Z" fill="white"/>
</svg>
