<svg width="20" height="21" viewBox="0 0 20 21" fill="none" xmlns="http://www.w3.org/2000/svg">
<path d="M-3.92168e-07 10.0176C-1.75495e-07 15.5426 4.59124 20.0176 10.2538 20.0176C14.785 20.0176 18.6275 17.1526 19.9823 13.1801C20.0788 12.6801 19.7614 12.4968 19.4893 12.4968C19.2458 12.4968 18.6006 12.5051 17.7458 12.5093C18.3641 15.2909 16.3702 15.8776 16.3702 15.8776C15.1867 16.3326 14.8702 16.9901 14.8702 16.9901C14.2346 17.8959 14.2476 16.9201 14.2476 16.9201C14.3189 15.9159 15.3041 15.3884 15.3041 15.3884C16.8719 14.4968 16.4189 13.0476 16.1571 12.4759C15.4937 12.3859 15.0424 12.1284 14.7859 11.8426C14.5293 14.0634 13.6476 16.3976 9.71899 16.3976C8.59987 16.3976 7.6851 16.0101 6.96772 15.3684C6.70859 15.4809 5.666 15.8184 4.25385 15.2809C4.25385 15.2809 3.97907 14.4434 5.30514 12.5309C5.07732 11.7309 4.96427 10.8809 4.95906 10.0309C4.96427 9.18094 5.07732 8.33094 5.30514 7.53094C3.97907 5.63094 4.25385 4.79344 4.25385 4.79344C5.666 4.25594 6.70859 4.59344 6.96772 4.69344C7.6851 4.05594 8.59987 3.66844 9.71899 3.66844C13.6581 3.66844 14.525 6.00594 14.7772 8.23094C15.085 7.88094 15.7137 7.55594 16.6745 7.55594C18.0467 7.55594 19.1493 7.56844 19.4823 7.56844C19.751 7.56844 20.0719 7.39344 19.9693 6.88094C18.6232 2.88011 14.778 0.0176079 10.2538 0.0176081C4.59123 0.0176084 -6.08743e-07 4.49511 -3.92168e-07 10.0176Z" fill="white"/>
</svg>
