<svg width="20" height="21" viewBox="0 0 20 21" fill="none" xmlns="http://www.w3.org/2000/svg">
<path d="M-5.39231e-07 6.2569L-2.45105e-07 13.7569C-1.09758e-07 17.2081 2.79875 20.0069 6.25 20.0069L13.75 20.0069C17.2012 20.0069 20 17.2081 20 13.7569L20 6.2569C20 2.80565 17.2012 0.00689613 13.75 0.0068963L6.25 0.00689667C2.79875 0.00689684 -6.74578e-07 2.80565 -5.39231e-07 6.2569ZM13.75 1.8819C16.1625 1.8819 18.125 3.8444 18.125 6.2569L18.125 13.7569C18.125 16.1694 16.1625 18.1319 13.75 18.1319L6.25 18.1319C3.8375 18.1319 1.875 16.1694 1.875 13.7569L1.875 6.2569C1.875 3.8444 3.8375 1.8819 6.25 1.8819L13.75 1.8819Z" fill="white"/>
<path d="M5 10.0069C5 12.7681 7.23875 15.0069 10 15.0069C12.7613 15.0069 15 12.7681 15 10.0069C15 7.24563 12.7612 5.00688 10 5.00688C7.23875 5.00688 5 7.24563 5 10.0069ZM13.125 10.0069C13.125 11.7294 11.7225 13.1319 10 13.1319C8.27625 13.1319 6.875 11.7294 6.875 10.0069C6.875 8.28438 8.27625 6.88188 10 6.88188C11.7225 6.88188 13.125 8.28438 13.125 10.0069Z" fill="white"/>
<path d="M5.29123 4.63176C5.29123 4.26373 4.99295 3.96538 4.62499 3.96538C4.25703 3.96538 3.95874 4.26373 3.95874 4.63176C3.95874 4.99978 4.25703 5.29813 4.62499 5.29813C4.99295 5.29813 5.29123 4.99978 5.29123 4.63176Z" fill="white"/>
</svg>
