<svg width="25" height="27" viewBox="0 0 25 27" fill="none" xmlns="http://www.w3.org/2000/svg">
<path d="M2.92969 16.9127L1.06509 16.4542C0.518604 17.6831 0 19.0636 0 20.654C0 22.2139 0.497607 23.5776 1.06509 24.8537L7.37305 23.3027V26.3614L9.57031 25.1369L11.7676 26.3614V23.3044L18.0263 24.8546C18.5686 23.6352 19.0918 22.2511 19.0918 20.654C19.0918 20.3787 19.0735 20.1046 19.0428 19.8376H25V0.244873H2.92969V16.9127ZM1.90088 22.9762C1.71035 22.4146 1.46484 21.5225 1.46484 20.654C1.46484 19.7852 1.7104 18.893 1.90088 18.3317L7.37305 19.6771V21.6308L1.90088 22.9762ZM10.3027 23.7196L9.57031 23.3114L8.83789 23.7196V19.8375H10.3027V23.7196ZM17.1913 22.9752L11.7676 21.6318V19.6761L17.1913 18.3326C17.3817 18.8943 17.627 19.7859 17.627 20.6539C17.627 21.5221 17.3817 22.4138 17.1913 22.9752ZM23.5352 1.8776V18.2049H18.7038C18.4637 17.3862 18.2701 16.9996 18.0263 16.4533L10.9548 18.2049H8.18535L4.39453 17.2728V1.8776H23.5352Z" fill="white"/>
<path d="M8.83789 3.51033H19.0918V5.14336H8.83789V3.51033Z" fill="white"/>
<path d="M5.85938 10.0413H22.0703V11.6743H5.85938V10.0413Z" fill="white"/>
<path d="M8.83789 13.3066H19.0918V14.9397H8.83789V13.3066Z" fill="white"/>
<path d="M10.3027 6.77581H11.7676V8.40884H10.3027V6.77581Z" fill="white"/>
<path d="M13.2324 6.77581H14.6973V8.40884H13.2324V6.77581Z" fill="white"/>
<path d="M16.1621 6.77581H17.627V8.40884H16.1621V6.77581Z" fill="white"/>
</svg>
