<svg width="22" height="27" viewBox="0 0 22 27" fill="none" xmlns="http://www.w3.org/2000/svg">
<path d="M18.2645 20.4702L17.6145 20.9535L19.1449 23.5123H1.85469L3.67773 20.4646H13.6023V19.5938H3.46875C3.40446 19.5938 3.34115 19.6114 3.28446 19.6452C3.22777 19.679 3.17943 19.7279 3.14375 19.7875L0.8 23.7061C0.75732 23.7777 0.734497 23.8617 0.734375 23.9477V25.2539C0.734375 25.4848 0.816685 25.7063 0.963198 25.8696C1.10971 26.0329 1.30842 26.1247 1.51562 26.1247H19.4844C19.6916 26.1247 19.8903 26.0329 20.0368 25.8696C20.1833 25.7063 20.2656 25.4848 20.2656 25.2539V23.9477C20.2655 23.8617 20.2427 23.7777 20.2 23.7061L18.2645 20.4702ZM1.51562 25.2539V24.3831H19.4844V25.2539H1.51562Z" fill="white"/>
<path d="M18.3125 0.0012207H2.6875C2.37698 0.00225437 2.07945 0.140201 1.85988 0.384934C1.64032 0.629667 1.51655 0.961299 1.51562 1.3074V12.6276C1.51655 12.9737 1.64032 13.3054 1.85988 13.5501C2.07945 13.7948 2.37698 13.9328 2.6875 13.9338H8.15625V15.6754H6.59375C6.49015 15.6754 6.39079 15.7213 6.31754 15.8029C6.24428 15.8846 6.20312 15.9953 6.20312 16.1108V17.8524C6.20312 17.9678 6.24428 18.0786 6.31754 18.1602C6.39079 18.2419 6.49015 18.2878 6.59375 18.2878H14.4062C14.5099 18.2878 14.6092 18.2419 14.6825 18.1602C14.7557 18.0786 14.7969 17.9678 14.7969 17.8524V16.1108C14.7969 15.9953 14.7557 15.8846 14.6825 15.8029C14.6092 15.7213 14.5099 15.6754 14.4062 15.6754H12.8438V13.9338H18.3125C18.623 13.9328 18.9205 13.7948 19.1401 13.5501C19.3597 13.3054 19.4834 12.9737 19.4844 12.6276V1.3074C19.4834 0.961299 19.3597 0.629667 19.1401 0.384934C18.9205 0.140201 18.623 0.00225437 18.3125 0.0012207ZM14.0156 16.5462V17.417H6.98438V16.5462H14.0156ZM8.9375 15.6754V13.9338H12.0625V15.6754H8.9375ZM18.7031 12.6276C18.7031 12.7431 18.662 12.8539 18.5887 12.9355C18.5155 13.0172 18.4161 13.063 18.3125 13.063H2.6875C2.5839 13.063 2.48454 13.0172 2.41129 12.9355C2.33803 12.8539 2.29688 12.7431 2.29688 12.6276V11.3215H18.7031V12.6276ZM18.7031 10.4507H2.29688V1.3074C2.29688 1.19193 2.33803 1.08118 2.41129 0.999532C2.48454 0.91788 2.5839 0.872008 2.6875 0.872008H18.3125C18.4161 0.872008 18.5155 0.91788 18.5887 0.999532C18.662 1.08118 18.7031 1.19193 18.7031 1.3074V10.4507Z" fill="white"/>
<path d="M16.3594 11.7567H17.1406V12.6276H16.3594V11.7567Z" fill="white"/>
<path d="M6.98438 9.57972H8.54688C8.65048 9.57972 8.74983 9.53385 8.82309 9.4522C8.89635 9.37054 8.9375 9.2598 8.9375 9.14433V8.70893H12.0625V9.14433C12.0625 9.2598 12.1037 9.37054 12.1769 9.4522C12.2502 9.53385 12.3495 9.57972 12.4531 9.57972H14.0156C14.1192 9.57972 14.2186 9.53385 14.2918 9.4522C14.3651 9.37054 14.4062 9.2598 14.4062 9.14433V7.40275C14.4062 7.28728 14.3651 7.17653 14.2918 7.09488C14.2186 7.01323 14.1192 6.96736 14.0156 6.96736H13.625V4.355H14.0156C14.1192 4.355 14.2186 4.30912 14.2918 4.22747C14.3651 4.14582 14.4062 4.03508 14.4062 3.9196V2.17803C14.4062 2.06255 14.3651 1.95181 14.2918 1.87016C14.2186 1.7885 14.1192 1.74263 14.0156 1.74263H12.4531C12.3495 1.74263 12.2502 1.7885 12.1769 1.87016C12.1037 1.95181 12.0625 2.06255 12.0625 2.17803V2.61342H8.9375V2.17803C8.9375 2.06255 8.89635 1.95181 8.82309 1.87016C8.74983 1.7885 8.65048 1.74263 8.54688 1.74263H6.98438C6.88077 1.74263 6.78142 1.7885 6.70816 1.87016C6.6349 1.95181 6.59375 2.06255 6.59375 2.17803V3.9196C6.59375 4.03508 6.6349 4.14582 6.70816 4.22747C6.78142 4.30912 6.88077 4.355 6.98438 4.355H7.375V6.96736H6.98438C6.88077 6.96736 6.78142 7.01323 6.70816 7.09488C6.6349 7.17653 6.59375 7.28728 6.59375 7.40275V9.14433C6.59375 9.2598 6.6349 9.37054 6.70816 9.4522C6.78142 9.53385 6.88077 9.57972 6.98438 9.57972ZM13.625 8.70893H12.8438V7.83814H13.625V8.70893ZM12.8438 2.61342H13.625V3.48421H12.8438V2.61342ZM7.375 2.61342H8.15625V3.48421H7.375V2.61342ZM8.15625 4.355H8.54688C8.65048 4.355 8.74983 4.30912 8.82309 4.22747C8.89635 4.14582 8.9375 4.03508 8.9375 3.9196V3.48421H12.0625V3.9196C12.0625 4.03508 12.1037 4.14582 12.1769 4.22747C12.2502 4.30912 12.3495 4.355 12.4531 4.355H12.8438V6.96736H12.4531C12.3495 6.96736 12.2502 7.01323 12.1769 7.09488C12.1037 7.17653 12.0625 7.28728 12.0625 7.40275V7.83814H8.9375V7.40275C8.9375 7.28728 8.89635 7.17653 8.82309 7.09488C8.74983 7.01323 8.65048 6.96736 8.54688 6.96736H8.15625V4.355ZM7.375 7.83814H8.15625V8.70893H7.375V7.83814Z" fill="white"/>
<path d="M6.98438 21.7707H12.4531V22.6417H6.98438V21.7707Z" fill="white"/>
<path d="M21.3867 15.1702L20.2813 13.9381C20.2449 13.8975 20.2016 13.8655 20.154 13.8438C20.1064 13.8221 20.0554 13.8112 20.0039 13.8118C19.9531 13.8112 19.9026 13.8221 19.8556 13.8438C19.8087 13.8655 19.7661 13.8976 19.7305 13.9381L14.4805 19.7898C14.4377 19.8373 14.4056 19.8955 14.3867 19.9596L14.1094 20.8826C14.0871 20.9591 14.084 21.0409 14.1006 21.1193C14.1171 21.1976 14.1526 21.2693 14.2031 21.3267L13.6524 21.945L14.2031 22.5589L14.7578 21.945C14.7937 21.9851 14.8363 22.0169 14.8832 22.0386C14.9301 22.0603 14.9805 22.0714 15.0313 22.0712C15.0737 22.0707 15.1158 22.0634 15.1563 22.0494L15.9844 21.7403C16.0418 21.7193 16.094 21.6835 16.1367 21.6358L21.3867 15.7841C21.4595 15.7026 21.5003 15.5922 21.5003 15.4772C21.5003 15.3622 21.4595 15.2518 21.3867 15.1702ZM15.6524 20.9479L15.1406 21.1351L14.9258 20.9L15.0977 20.3296L18.8985 16.0933L19.4531 16.7072L15.6524 20.9479ZM20.0039 16.0933L19.4531 15.4794L20.0039 14.8611L20.5586 15.4794L20.0039 16.0933Z" fill="white"/>
</svg>
