<svg width="25" height="28" viewBox="0 0 25 28" fill="none" xmlns="http://www.w3.org/2000/svg">
<path d="M22.5 4.25355H11.25V5.18256H22.5V4.25355Z" fill="white"/>
<path d="M18.3333 6.11117H11.25V7.04018H18.3333V6.11117Z" fill="white"/>
<path d="M18.3333 7.96889H11.25V8.8979H18.3333V7.96889Z" fill="white"/>
<path d="M22.5 2.39583H14.5833V3.32484H22.5V2.39583Z" fill="white"/>
<path d="M13.75 2.39583H12.9166V3.32484H13.75V2.39583Z" fill="white"/>
<path d="M12.9166 18.6505H12.0833V19.5795H12.9166V18.6505Z" fill="white"/>
<path d="M6.9612 3.18876L6.37203 2.53194L5.5387 3.46096C5.37604 3.64235 5.37604 3.93638 5.5387 4.11777L6.37203 5.04678L6.9612 4.38997L6.42245 3.78936L6.9612 3.18876Z" fill="white"/>
<path d="M10.2945 3.46096L9.4612 2.53194L8.87203 3.18876L9.41078 3.78936L8.87203 4.38997L9.4612 5.04678L10.2945 4.11777C10.4572 3.93638 10.4572 3.64235 10.2945 3.46096Z" fill="white"/>
<path d="M7.93842 2.24796L7.10417 5.0349L7.89429 5.32874L8.72854 2.5418L7.93842 2.24796Z" fill="white"/>
<path d="M21.6666 14.4716V10.7555H20.8333V14.4716H20V9.82651H19.1666V14.4716H18.3333V12.149H17.5V14.4716H16.6666V11.6845H15.8333V14.4716H15V12.6136H14.1666V14.4716H13.3333V15.4006H22.5V14.4716H21.6666Z" fill="white"/>
<path d="M22.0833 0.0737305H2.91663C1.53647 0.0752398 0.41798 1.32192 0.416626 2.86025V18.6505C0.41798 20.1889 1.53647 21.4355 2.91663 21.437H8.07579L6.40913 25.1524H4.16663C3.47626 25.1524 2.91663 25.7762 2.91663 26.5457C2.91663 27.3152 3.47626 27.9389 4.16663 27.9389H20.8333C21.5237 27.9389 22.0833 27.3152 22.0833 26.5457C22.0833 25.7762 21.5237 25.1524 20.8333 25.1524H18.5908L16.9241 21.437H22.0833C23.4634 21.4355 24.5819 20.1889 24.5833 18.6505V2.86025C24.5819 1.32192 23.4634 0.0752398 22.0833 0.0737305ZM1.24996 6.60812L2.19704 7.86484C2.27621 7.96997 2.39308 8.03064 2.51621 8.03064H3.79163C3.91475 8.03064 4.03163 7.96997 4.11079 7.86484L5.05829 6.60812L5.99329 6.94668L6.09663 8.58283C6.10517 8.71966 6.16756 8.84529 6.26704 8.92604L7.29913 9.762C7.39897 9.84234 7.52543 9.86968 7.64496 9.83677L9.07538 9.44062L9.65371 10.3272L8.87413 11.7205C8.80954 11.8373 8.79459 11.9799 8.83329 12.1101L9.22788 13.462C9.26584 13.5924 9.3535 13.6975 9.46746 13.749L10.8333 14.3663V15.4623L9.46663 16.0795C9.35241 16.1308 9.2646 16.2362 9.22704 16.367L9.10204 16.7928H6.70163C7.63538 14.6138 6.80746 12.0036 4.85246 10.9628C3.70418 10.3515 2.36116 10.399 1.24996 11.0902V6.60812ZM1.24996 12.1951C2.59767 11.0232 4.54256 11.2909 5.59392 12.7931C6.40569 13.9529 6.46834 15.5589 5.74996 16.7928H1.24996V12.1951ZM20.8333 26.0812C21.0634 26.0812 21.25 26.2892 21.25 26.5457C21.25 26.8021 21.0634 27.0101 20.8333 27.0101H4.16663C3.93652 27.0101 3.74996 26.8021 3.74996 26.5457C3.74996 26.2892 3.93652 26.0812 4.16663 26.0812H20.8333ZM17.6591 25.1524H7.34079L9.00746 21.437H15.9925L17.6591 25.1524ZM23.75 18.6505C23.75 19.6765 23.0038 20.5082 22.0833 20.5082H2.91663C1.99616 20.5082 1.24996 19.6765 1.24996 18.6505V17.7217H23.75V18.6505ZM23.75 16.7928H10.1062L11.4066 16.2054C11.5637 16.1343 11.6665 15.9643 11.6666 15.7753V14.0528C11.6667 13.8636 11.5639 13.6934 11.4066 13.6223L9.95829 12.9693L9.68413 12.0288L10.51 10.552C10.5995 10.3915 10.5929 10.1866 10.4933 10.0337L9.58496 8.64042C9.48522 8.48734 9.3122 8.41698 9.14746 8.46255L7.63246 8.88053L6.91663 8.30093L6.80704 6.56864C6.79512 6.3798 6.68152 6.21789 6.51996 6.15949L5.05121 5.62726C4.88959 5.56991 4.71293 5.62651 4.60329 5.77077L3.60038 7.10133H2.71163L1.70829 5.77077C1.59861 5.62634 1.42168 5.56968 1.25996 5.62726L1.24996 5.63144V2.86025C1.24996 1.83429 1.99616 1.00257 2.91663 1.00257H22.0833C23.0038 1.00257 23.75 1.83429 23.75 2.86025V16.7928Z" fill="white"/>
</svg>
