<svg width="21" height="28" viewBox="0 0 21 28" fill="none" xmlns="http://www.w3.org/2000/svg">
<path d="M17.7168 18.2787L16.2496 17.7985L13.0574 15.4746V14.9421C13.9816 14.1651 14.6163 12.9774 14.7342 11.6159C15.1978 11.5328 15.5529 11.0838 15.5529 10.5442V9.07988C15.5529 9.07422 15.5523 9.06866 15.5521 9.063V7.20812C15.7368 7.06074 15.854 6.82067 15.854 6.55138V4.85389L18.0569 4.43564C18.419 4.3669 18.6793 4.0464 18.7049 3.63805C18.7304 3.22971 18.5125 2.87203 18.1626 2.748L10.7359 0.115065C10.581 0.0600968 10.4173 0.0601512 10.2624 0.115011L2.83569 2.748C2.48574 2.87203 2.26777 3.22971 2.29331 3.638C2.30952 3.89744 2.42075 4.12112 2.59243 4.26763V6.48743H2.57427C2.15605 6.48743 1.81582 6.86666 1.81582 7.3328V8.43468L1.32622 11.6377C1.2416 12.1916 1.62441 12.6987 2.12979 12.6987H3.78745C4.2917 12.6987 4.67583 12.1928 4.59102 11.6376L4.10142 8.43468V7.3328C4.10142 6.86666 3.76118 6.48743 3.34297 6.48743H3.32485V4.50841L5.14585 4.85411V6.55138C5.14585 6.81953 5.2625 7.05921 5.44629 7.20681L5.44697 9.08004V10.5442C5.44697 11.0839 5.8021 11.5328 6.26563 11.6159C6.38355 12.9766 7.01753 14.1638 7.94087 14.9408V15.4758L4.74937 17.7993L3.2833 18.279C1.7145 18.7922 0.606787 20.3976 0.606787 22.2637V23.4801C0.606787 23.7056 0.770703 23.8883 0.972998 23.8883C1.17529 23.8883 1.33921 23.7056 1.33921 23.4801V22.2637C1.33921 20.7929 2.22344 19.4764 3.4896 19.0623L4.85562 18.6153L10.3129 22.2298C10.4237 22.3032 10.5703 22.3071 10.6871 22.2298L16.1447 18.6151L17.5106 19.062C18.7766 19.4763 19.6608 20.7927 19.6608 22.2634V26.2058C19.6608 26.7114 19.2917 27.1228 18.838 27.1228H17.2239V25.3634C17.2239 25.138 17.06 24.9552 16.8577 24.9552C16.6555 24.9552 16.4915 25.1379 16.4915 25.3634V27.1228H4.50674V25.3634C4.50674 25.138 4.34282 24.9552 4.14053 24.9552C3.93823 24.9552 3.77432 25.1379 3.77432 25.3634V27.1228H2.16187C1.7082 27.1228 1.33911 26.7114 1.33911 26.2058V25.3882C1.33911 25.1628 1.1752 24.98 0.9729 24.98C0.770605 24.98 0.606689 25.1627 0.606689 25.3882V26.2057C0.606689 27.1615 1.3043 27.9391 2.16182 27.9391H18.8379C19.6955 27.9391 20.3931 27.1615 20.3931 26.2057V22.2633C20.3931 20.4412 19.3231 18.8044 17.7168 18.2787ZM3.7874 11.8823H2.12979C2.07856 11.8823 2.0395 11.8313 2.04819 11.7747L2.49106 8.87736H3.42612L3.86899 11.7746C3.87764 11.8312 3.83887 11.8823 3.7874 11.8823ZM3.36899 7.3328V8.06105H2.54814V7.3328C2.54814 7.31675 2.55981 7.30374 2.57422 7.30374H3.34287C3.35732 7.30369 3.36899 7.31675 3.36899 7.3328ZM9.19019 20.3834L9.33594 20.6331L5.59722 18.157L7.97031 16.4293C8.07793 17.8367 8.49414 19.191 9.19019 20.3834ZM9.18765 18.6214C10.0496 18.7579 10.9497 18.758 11.8122 18.6214C11.6455 19.0785 11.4401 19.5195 11.1958 19.9383L10.4999 21.1304L9.80405 19.9383C9.55967 19.5195 9.3543 19.0785 9.18765 18.6214ZM11.8096 20.3834C12.5057 19.191 12.9219 17.8367 13.0294 16.4293L15.4025 18.1569L11.6639 20.6331L11.8096 20.3834ZM13.9518 7.36013H14.8197V8.67164H14.3889C14.1479 8.67164 13.9517 8.45307 13.9517 8.18438V7.36013H13.9518ZM3.05767 3.52594L10.4845 0.892896C10.494 0.889522 10.5042 0.889467 10.5139 0.892951L17.9407 3.52594C17.956 3.53138 17.9771 3.53878 17.9744 3.58129C17.9717 3.62374 17.95 3.62782 17.934 3.63087L15.4786 4.09701L14.5567 3.96993C14.3561 3.94223 14.1732 4.10126 14.1483 4.32494C14.1235 4.54868 14.2662 4.75244 14.4668 4.78009L15.1216 4.87038V6.54382L5.87822 6.54344V4.87033L9.66763 4.34769C10.2196 4.27166 10.7792 4.27166 11.3307 4.34769L12.7649 4.54541C12.9656 4.57312 13.1485 4.41414 13.1733 4.19046C13.1982 3.96672 13.0556 3.76296 12.8549 3.73526L11.4207 3.53753C10.8095 3.45323 10.1894 3.45323 9.57773 3.53753L5.52041 4.09712L3.06421 3.63087C3.04829 3.62782 3.02656 3.62374 3.02388 3.58129C3.02124 3.53878 3.04229 3.53133 3.05767 3.52594ZM6.17915 8.67164L6.17866 7.36013H7.04805V8.18443C7.04805 8.45307 6.85195 8.67169 6.61084 8.67169H6.17915V8.67164ZM6.98516 11.4061C6.96631 11.0738 6.71846 10.8134 6.42095 10.8134C6.2877 10.8134 6.1793 10.6926 6.1793 10.5441V9.488H6.61084C7.25571 9.488 7.78042 8.90321 7.78042 8.18443V7.36013H13.2193V8.18443C13.2193 8.90321 13.744 9.488 14.3889 9.488H14.8205V10.5441C14.8205 10.6926 14.7121 10.8134 14.5788 10.8134C14.2813 10.8134 14.0334 11.0738 14.0146 11.4062C13.898 13.4672 12.3541 15.0817 10.4999 15.0817C8.64561 15.0817 7.10181 13.4672 6.98516 11.4061ZM10.4999 15.898C11.1512 15.898 11.7703 15.732 12.325 15.4368V15.6955C12.325 16.3934 12.2405 17.0818 12.0779 17.7458C11.0827 17.9573 9.95752 17.9658 8.92192 17.7458C8.75928 17.0819 8.67481 16.3935 8.67481 15.6955C8.67481 15.6869 8.67373 15.6784 8.67324 15.6699C8.67315 15.6682 8.67329 15.6665 8.67319 15.6648V15.436C9.22832 15.7317 9.84795 15.898 10.4999 15.898Z" fill="white"/>
</svg>
