<svg width="25" height="25" viewBox="0 0 25 25" fill="none" xmlns="http://www.w3.org/2000/svg">
<path d="M0 -6.10352e-05V21.8743H8.02402V23.4384H6.55742V24.9999H18.4425V23.4384H16.9759V21.8743H25V-6.10352e-05H0ZM15.511 23.4384H9.48897V21.8743H15.511L15.511 23.4384ZM23.5351 20.3128H1.46489V17.1859H23.5351L23.5351 20.3128ZM23.5351 15.6244H1.46489V1.56154H23.5351L23.5351 15.6244Z" fill="white"/>
<path d="M9.95816 6.03373L8.92232 4.87917L5.23877 8.98488L8.92232 13.0905L9.95816 11.936L7.31045 8.98488L9.95816 6.03373Z" fill="white"/>
<path d="M16.0777 4.87917L15.0419 6.03373L17.6896 8.98488L15.0419 11.936L16.0777 13.0905L19.7612 8.98488L16.0777 4.87917Z" fill="white"/>
<path d="M12.632 4.06158L10.9314 13.5904L12.3682 13.9089L14.0688 4.38015L12.632 4.06158Z" fill="white"/>
</svg>
